<svg version="1.1" id="Layer_1" xmlns="http://www.w3.org/2000/svg" xmlns:xlink="http://www.w3.org/1999/xlink" x="0px" y="0px"
	 viewBox="220 310 570 310" xml:space="preserve">
<path fill="#000000" opacity="1.000000" stroke="none" 
	d="
M561.000000,342.946136 
	C586.663818,342.946991 611.827698,342.940216 636.991516,342.952454 
	C647.120056,342.957397 653.363586,349.125885 653.364319,359.092926 
	C653.366699,390.422668 653.364929,421.752411 653.362000,453.082153 
	C653.361267,460.729340 653.356201,460.729340 646.080200,461.358063 
	C646.164062,461.657166 646.151733,462.108063 646.343567,462.225372 
	C652.266174,465.847839 653.573181,471.104340 653.507141,477.883850 
	C653.177490,511.710083 653.369019,545.541321 653.365723,579.370850 
	C653.364929,587.513428 646.791626,594.224304 638.811951,594.227295 
	C605.982300,594.239624 573.152588,594.260010 540.323120,594.193665 
	C538.039307,594.189087 534.985840,595.333618 533.931274,591.945068 
	C532.959839,588.823425 534.598877,586.916565 537.399231,585.712341 
	C538.933472,585.052490 539.563904,583.728149 539.560303,582.080261 
	C539.557739,580.913940 539.593262,579.747559 539.593323,578.581238 
	C539.596008,505.589417 539.585449,432.597626 539.629150,359.605835 
	C539.631531,355.663788 539.793884,351.974579 535.385559,349.903839 
	C533.518311,349.026733 533.453430,346.881500 533.933899,345.007446 
	C534.481079,342.872864 536.373779,342.985870 538.002930,342.974945 
	C545.501709,342.924530 553.000916,342.948730 561.000000,342.946136 
M573.745544,565.706177 
	C589.068298,565.705566 604.392090,565.606018 619.713013,565.773010 
	C623.603821,565.815430 624.961304,564.538940 624.948547,560.614807 
	C624.850159,530.302979 624.881775,499.990479 624.978027,469.678497 
	C624.988281,466.446533 623.902710,464.520966 620.964050,463.019196 
	C604.953308,454.836914 589.039795,446.464661 573.075989,438.190216 
	C571.803040,437.530396 570.589050,436.438934 568.778015,437.037079 
	C567.897095,438.292786 568.067139,439.826019 568.066345,441.280975 
	C568.045227,481.086517 568.070679,520.892090 567.996826,560.697510 
	C567.990295,564.212524 568.993347,566.164429 573.745544,565.706177 
M568.161560,404.755310 
	C568.294495,407.210236 570.275574,407.950958 572.025513,408.870026 
	C587.923035,417.219574 603.821777,425.566833 619.739929,433.876862 
	C621.131348,434.603210 622.507507,435.854614 624.352234,434.816498 
	C624.501770,434.342712 624.777832,433.874481 624.779053,433.405518 
	C624.829468,414.114288 624.824646,394.822876 624.909790,375.531830 
	C624.926758,371.684265 622.593811,371.378693 619.639465,371.386719 
	C604.171997,371.428802 588.702393,371.534241 573.237976,371.309784 
	C568.852600,371.246124 567.867371,373.062714 567.955994,376.956512 
	C568.160217,385.933258 568.068176,394.916748 568.161560,404.755310 
z"/>
<path fill="#000000" opacity="1.000000" stroke="none" 
	d="
M451.759705,591.118408 
	C451.748749,589.517090 451.545837,587.964722 452.663269,587.482239 
	C457.948486,585.200195 457.008545,580.621765 457.011505,576.373291 
	C457.035919,541.549805 456.944183,506.725616 457.185883,471.903687 
	C457.221161,466.818390 455.540344,464.112030 451.060425,461.873230 
	C435.567017,454.130646 420.274109,445.987122 404.894409,438.016418 
	C403.603790,437.347504 402.235199,436.829102 400.869385,436.225983 
	C399.657043,438.358429 400.130951,440.391113 400.129242,442.316010 
	C400.089050,487.636444 400.090759,532.956909 400.101746,578.277405 
	C400.102570,581.708862 399.463409,585.308533 403.845367,587.108093 
	C405.817871,587.918091 405.411133,590.253967 405.137238,592.056641 
	C404.792389,594.326477 402.873383,594.213135 401.240631,594.217590 
	C390.743866,594.246582 380.246887,594.226624 369.750000,594.205627 
	C367.994476,594.202087 366.343414,593.908936 365.993988,591.759338 
	C365.686218,589.866272 365.671600,587.728394 367.701233,586.994751 
	C371.844177,585.497131 371.662262,582.294922 371.660858,578.865173 
	C371.630524,505.385925 371.626984,431.906708 371.683563,358.427490 
	C371.686279,354.924194 371.568726,351.886139 367.794128,350.141754 
	C365.694702,349.171478 365.349854,346.983887 366.098450,344.933960 
	C366.996521,342.474670 369.327332,342.967133 371.252411,342.965881 
	C403.076752,342.945007 434.903076,343.147583 466.723755,342.810089 
	C473.326202,342.740051 478.251801,344.762268 482.741791,349.192688 
	C484.542175,350.969208 485.428040,352.743591 485.423706,355.288574 
	C485.366516,388.945618 485.314362,422.603088 485.450806,456.259674 
	C485.474304,462.054962 481.554993,460.819458 478.291748,461.087982 
	C478.256836,461.416077 478.107178,461.894165 478.213074,461.959717 
	C484.470703,465.834961 485.594757,471.496918 485.523224,478.565613 
	C485.182709,512.219238 485.411896,545.878357 485.358459,579.535400 
	C485.353363,582.739685 485.563904,585.411743 489.151642,586.727661 
	C491.461395,587.574890 491.440369,589.805420 491.116302,591.853699 
	C490.715973,594.384277 488.639252,594.210022 486.834686,594.215942 
	C476.671082,594.249084 466.507202,594.248779 456.343597,594.214905 
	C454.366211,594.208313 452.161591,594.391052 451.759705,591.118408 
M412.851685,413.593597 
	C427.246399,421.079651 441.641113,428.565674 456.009399,436.037994 
	C456.505188,435.185852 456.805084,434.910614 456.806244,434.634155 
	C456.889221,414.845917 456.940796,395.057587 457.017334,375.269318 
	C457.029297,372.177246 455.319855,371.369873 452.537811,371.378296 
	C436.571075,371.426727 420.603424,371.459778 404.637604,371.322937 
	C401.070251,371.292358 399.966370,372.771729 400.050018,376.088562 
	C400.192535,381.740112 400.778564,387.496399 399.967010,393.031128 
	C398.436493,403.469299 401.923126,410.253967 412.851685,413.593597 
z"/>
<path fill="#000000" opacity="1.000000" stroke="none" 
	d="
M659.698975,407.999939 
	C659.697205,390.673096 659.700928,373.846222 659.688538,357.019379 
	C659.686829,354.718658 660.076843,352.272369 657.314514,350.996674 
	C654.938843,349.899567 653.615967,348.086426 654.405334,345.376526 
	C655.322693,342.227264 658.096008,342.999084 660.268677,342.992432 
	C682.759827,342.923553 705.251221,342.938660 727.742554,342.935547 
	C738.238525,342.934113 748.734741,342.902527 759.230225,342.973877 
	C762.346252,342.995056 765.191467,342.936829 766.778442,339.521301 
	C767.827026,337.264526 770.037720,337.429993 772.027405,337.898102 
	C774.154053,338.398438 774.072388,340.333252 774.080200,341.958282 
	C774.130066,352.287140 774.128845,362.616455 774.097412,372.945435 
	C774.091736,374.794189 774.014099,376.767700 771.548462,377.143066 
	C769.431702,377.465302 767.448120,377.163544 766.482788,374.951965 
	C765.110596,371.808167 762.607361,371.358948 759.532898,371.369141 
	C737.541626,371.441956 715.549622,371.461884 693.558716,371.340057 
	C689.851929,371.319550 688.092957,372.158051 688.223694,376.337830 
	C688.499695,385.159119 688.404053,393.996582 688.257324,402.824036 
	C688.209167,405.726562 689.286804,407.377441 691.839050,408.676727 
	C705.642822,415.703888 719.397888,422.827667 733.121399,430.010590 
	C735.628601,431.322815 737.604248,432.111267 739.125000,428.763000 
	C740.136658,426.535614 742.300842,426.536530 744.336548,427.005707 
	C746.542969,427.514221 746.292419,429.444916 746.297668,431.066803 
	C746.331421,441.395996 746.337891,451.725403 746.300537,462.054596 
	C746.294128,463.832214 746.563538,465.923553 743.898071,466.227417 
	C741.800049,466.466522 739.735779,466.338196 738.855896,464.041443 
	C737.664368,460.931152 735.056946,459.610474 732.356079,458.225677 
	C718.002014,450.866150 703.676941,443.450043 689.109497,435.933655 
	C687.875244,438.091370 688.315369,440.108368 688.314209,442.002014 
	C688.290527,481.320190 688.367188,520.638611 688.225464,559.956238 
	C688.209900,564.268188 689.332703,565.757690 693.809265,565.715515 
	C715.798889,565.508606 737.791626,565.577576 759.782898,565.643066 
	C762.696289,565.651733 764.996216,565.089050 766.384644,562.265869 
	C767.504395,559.989014 769.520508,559.322327 771.859009,559.951843 
	C774.475525,560.656189 774.106750,562.980164 774.116638,564.903442 
	C774.167297,574.732666 774.162537,584.562500 774.105469,594.391663 
	C774.095337,596.144226 774.507019,598.374451 772.199158,599.044556 
	C770.057373,599.666504 767.697998,599.656799 766.548157,597.228333 
	C764.980957,593.918213 762.130859,594.239624 759.292908,594.239990 
	C726.138977,594.244324 692.985107,594.251343 659.831238,594.203064 
	C657.661194,594.199890 654.859192,595.015198 654.223877,591.611267 
	C653.867676,589.702576 654.120605,587.627441 655.979614,586.786621 
	C659.856079,585.033447 659.731689,581.866028 659.729126,578.434937 
	C659.687683,521.789917 659.699463,465.144958 659.698975,407.999939 
z"/>
<path fill="#000000" opacity="1.000000" stroke="none" 
	d="
M292.669678,537.999878 
	C292.665894,484.519318 292.666504,431.538727 292.653900,378.558167 
	C292.652191,371.409729 292.621429,371.400299 285.493988,371.388000 
	C278.163391,371.375366 270.831848,371.447449 263.502533,371.349640 
	C260.791870,371.313446 258.568726,371.694916 257.496521,374.608673 
	C256.572845,377.118774 254.498718,377.513733 252.164215,377.094116 
	C249.670090,376.645813 249.784775,374.618225 249.777481,372.801819 
	C249.736023,362.472473 249.725677,352.142883 249.750641,341.813477 
	C249.754532,340.202911 249.473373,338.202301 251.782013,337.869385 
	C253.896591,337.564423 256.257996,337.153931 257.412018,339.753510 
	C258.635834,342.510315 260.873840,342.940979 263.564240,342.938263 
	C292.553528,342.909241 321.542938,342.915588 350.532135,342.982513 
	C353.285034,342.988861 355.374023,342.322968 356.677399,339.715759 
	C357.771179,337.527832 359.822998,337.460632 361.879547,337.862213 
	C364.382507,338.350952 364.136719,340.470184 364.145264,342.237427 
	C364.194427,352.399658 364.184326,362.562317 364.149933,372.724670 
	C364.143738,374.557434 364.158264,376.569183 361.744446,377.055145 
	C359.611176,377.484528 357.650360,377.029419 356.615753,374.941772 
	C355.129150,371.941986 352.704071,371.299713 349.604828,371.350708 
	C341.943207,371.476929 334.274353,371.513245 326.615509,371.313507 
	C322.859436,371.215546 321.241089,372.315369 321.246490,376.376007 
	C321.337311,444.517578 321.323151,512.659302 321.288879,580.800964 
	C321.287598,583.335510 321.662781,585.380005 324.311279,586.445740 
	C326.707764,587.410156 327.342834,589.398987 326.894897,591.775146 
	C326.373322,594.541931 324.117706,594.233521 322.158234,594.238525 
	C312.161987,594.264038 302.165405,594.273071 292.169495,594.207520 
	C290.462708,594.196289 288.131927,594.830811 287.663055,592.278381 
	C287.278961,590.187622 287.024841,587.731873 289.562836,586.626648 
	C292.662079,585.277100 292.695160,582.757751 292.685394,579.984436 
	C292.636780,566.156433 292.667328,552.328125 292.669678,537.999878 
z"/>
<path fill="#000000" opacity="1.000000" stroke="none" 
	d="
M523.928589,594.244690 
	C515.112305,594.243896 506.784424,594.281921 498.457489,594.212036 
	C496.419464,594.194946 493.818787,594.926819 493.073669,591.960388 
	C492.429779,589.396790 493.266479,587.364319 495.911621,586.346680 
	C499.236115,585.067627 498.661835,582.172852 498.663147,579.561279 
	C498.682922,539.589172 498.692383,499.617065 498.695740,459.644958 
	C498.698578,425.835236 498.668915,392.025452 498.719818,358.215820 
	C498.725006,354.757568 498.751831,351.642487 494.836456,349.965668 
	C492.924377,349.146820 492.766449,347.092621 493.292511,345.162598 
	C493.785828,343.352661 495.288574,343.037506 496.832153,343.032013 
	C507.324188,342.994476 517.816528,342.974884 528.308411,343.020325 
	C529.947876,343.027405 531.789246,343.113281 532.204834,345.303711 
	C532.562256,347.187408 532.556091,349.208130 530.640381,350.165375 
	C527.327942,351.820587 527.209900,354.588226 527.211670,357.722046 
	C527.254150,431.670380 527.244446,505.618774 527.264160,579.567139 
	C527.264832,581.995300 526.653687,584.747375 529.581970,586.135803 
	C532.134460,587.345947 532.760986,589.404541 532.214844,591.931274 
	C531.536621,595.069153 528.888672,593.959534 526.913330,594.220703 
	C526.094604,594.328918 525.250183,594.241943 523.928589,594.244690 
z"/>
</svg>